<svg id="Capa_1" enable-background="new 0 0 512 512" height="512" viewBox="0 0 512 512" width="512" xmlns="http://www.w3.org/2000/svg" xmlns:xlink="http://www.w3.org/1999/xlink"><linearGradient id="SVGID_1_" gradientUnits="userSpaceOnUse" x1="256" x2="256" y1="512" y2="0"><stop offset="0" stop-color="#a93aff"/><stop offset="1" stop-color="#ff81ff"/></linearGradient><g><g><g><path d="m256 301c-68.483 0-102.022 65.503-103.417 68.292-3.697 7.393-.705 16.362 6.677 20.082 7.38 3.72 16.392.746 20.135-6.625.264-.517 26.857-51.749 76.605-51.749 49.747 0 76.342 51.232 76.584 51.708 3.704 7.409 12.712 10.414 20.124 6.708 7.41-3.705 10.413-12.715 6.708-20.125-1.394-2.788-34.933-68.291-103.416-68.291zm-32.576-47.574 10.606-10.606c5.858-5.857 5.858-15.355 0-21.213l-63.637-63.641c-5.857-5.857-15.359-5.855-21.214 0l-10.606 10.606c-23.394 23.394-23.395 61.458-.002 84.853 23.451 23.453 61.43 23.425 84.853.001zm-63.638-21.213c-11.697-11.697-11.697-30.729.001-42.426l42.424 42.427c-11.726 11.724-30.701 11.724-42.425-.001zm96.214-232.213c-140.95 0-256 115.041-256 256 0 140.95 115.041 256 256 256 140.951 0 256-115.041 256-256 0-140.951-115.041-256-256-256zm0 482c-124.617 0-226-101.383-226-226s101.383-226 226-226 226 101.383 226 226-101.383 226-226 226zm106.819-324.034c-5.856-5.857-15.359-5.855-21.213 0l-63.638 63.641c-5.857 5.858-5.857 15.355.001 21.213l10.606 10.607c23.453 23.452 61.406 23.446 84.853-.001 23.392-23.394 23.391-61.458-.003-84.852zm-10.604 74.247c-11.727 11.726-30.7 11.724-42.426 0l42.424-42.427c11.697 11.697 11.697 30.73.002 42.427z" fill="url(#SVGID_1_)"/></g></g></g></svg>