<svg id="Capa_1" enable-background="new 0 0 512 512" height="512" viewBox="0 0 512 512" width="512" xmlns="http://www.w3.org/2000/svg" xmlns:xlink="http://www.w3.org/1999/xlink"><linearGradient id="SVGID_1_" gradientUnits="userSpaceOnUse" x1="256" x2="256" y1="512" y2="0"><stop offset="0" stop-color="#00b59c"/><stop offset="1" stop-color="#9cffac"/></linearGradient><g><g><g><path d="m308.618 170.978c-4.808 7.16-7.618 15.768-7.618 25.022 0 24.813 20.187 45 45 45s45-20.187 45-45-20.187-45-45-45-45-20.187-45-45c0-8.284-6.716-15-15-15s-15 6.716-15 15c0 27.748 15.159 52.006 37.618 64.978zm37.382 10.022c8.271 0 15 6.729 15 15s-6.729 15-15 15-15-6.729-15-15 6.729-15 15-15zm60 90c-32.373 0-60.017 20.619-70.5 49.412-16.688-9.275-43.211-19.412-79.5-19.412s-62.812 10.137-79.5 19.412c-10.483-28.793-38.127-49.412-70.5-49.412-8.284 0-15 6.716-15 15s6.716 15 15 15c24.813 0 45 20.187 45 45 0 12.02-4.681 23.32-13.18 31.82-5.858 5.858-5.858 15.355 0 21.213 5.857 5.857 15.355 5.858 21.213 0 12.442-12.441 19.969-28.485 21.619-45.778 9.276-7.018 34.159-22.255 75.348-22.255s66.072 15.237 75.349 22.255c1.649 17.293 9.177 33.336 21.619 45.778 5.857 5.857 15.355 5.858 21.213 0s5.858-15.355 0-21.213c-8.5-8.5-13.18-19.8-13.18-31.82 0-24.813 20.187-45 45-45 8.284 0 15-6.716 15-15s-6.717-15-15.001-15zm-150-271c-140.959 0-256 115.05-256 256 0 140.959 115.05 256 256 256 140.959 0 256-115.05 256-256 0-140.959-115.05-256-256-256zm0 482c-124.617 0-226-101.383-226-226s101.383-226 226-226 226 101.383 226 226-101.383 226-226 226zm-90-241c24.813 0 45-20.187 45-45 0-9.254-2.81-17.862-7.618-25.022 22.459-12.972 37.618-37.23 37.618-64.978 0-8.284-6.716-15-15-15s-15 6.716-15 15c0 24.813-20.187 45-45 45s-45 20.187-45 45 20.187 45 45 45zm0-60c8.271 0 15 6.729 15 15s-6.729 15-15 15-15-6.729-15-15 6.729-15 15-15z" fill="url(#SVGID_1_)"/></g></g></g></svg>