<svg id="Capa_1" enable-background="new 0 0 512 512" height="512" viewBox="0 0 512 512" width="512" xmlns="http://www.w3.org/2000/svg" xmlns:xlink="http://www.w3.org/1999/xlink"><linearGradient id="SVGID_1_" gradientUnits="userSpaceOnUse" x1="256" x2="256" y1="512" y2="0"><stop offset="0" stop-color="#5558ff"/><stop offset="1" stop-color="#00c0ff"/></linearGradient><g><g><g><path d="m346 181c8.284 0 15-6.716 15-15s-6.716-15-15-15c-24.813 0-45-20.187-45-45 0-8.284-6.716-15-15-15s-15 6.716-15 15c0 41.355 33.645 75 75 75zm-180 0c41.355 0 75-33.645 75-75 0-8.284-6.716-15-15-15s-15 6.716-15 15c0 24.813-20.187 45-45 45-8.284 0-15 6.716-15 15s6.716 15 15 15zm90 150c-68.483 0-102.022 65.503-103.416 68.292-3.697 7.393-.705 16.363 6.677 20.082 7.38 3.719 16.393.745 20.135-6.625.262-.517 26.857-51.749 76.604-51.749s76.342 51.232 76.584 51.708c3.699 7.399 12.703 10.418 20.124 6.708 7.41-3.705 10.413-12.715 6.708-20.125-1.394-2.788-34.933-68.291-103.416-68.291zm135-120h-90c-8.284 0-15 6.716-15 15v15c0 33.084 26.916 60 60 60s60-26.916 60-60v-15c0-8.284-6.716-15-15-15zm-45 60c-16.542 0-30-13.458-30-30h60c0 16.542-13.458 30-30 30zm-90-271c-56.96 0-112.138 19.542-157.454 55.382-7.889-16.605-17.759-35.624-24.428-47.657-2.632-4.745-7.621-7.699-13.048-7.725-.023 0-.047 0-.07 0-5.399 0-10.385 2.903-13.049 7.603-12.562 22.156-47.951 87.723-47.951 113.397 0 16.053 6.476 31.177 18.235 42.585.003.003.006.005.009.008-12.1 30.589-18.244 61.62-18.244 92.407 0 140.959 115.049 256 256 256 140.959 0 256-115.049 256-256 0-140.96-115.049-256-256-256zm-195.136 46.666c6.385 12.484 30.136 60.276 30.136 74.334 0 16.542-13.458 30-30 30-16.713 0-31-13.681-31-30 0-10.219 14.361-42.693 30.864-74.334zm195.136 435.334c-124.617 0-226-101.383-226-226 0-25.616 4.904-51.541 14.557-77.258 5.301 1.478 10.819 2.258 16.443 2.258 33.084 0 60-26.916 60-60 0-5.821-1.277-15.668-9.875-37.17 41.12-34.787 92.169-53.83 144.875-53.83 124.617 0 226 101.383 226 226s-101.383 226-226 226zm-30-241v-15c0-8.284-6.716-15-15-15h-90c-8.284 0-15 6.716-15 15v15c0 33.084 26.916 60 60 60s60-26.916 60-60zm-90 0h60c0 16.542-13.458 30-30 30s-30-13.458-30-30z" fill="url(#SVGID_1_)"/></g></g></g></svg>