<svg id="Capa_1" enable-background="new 0 0 512 512" height="512" viewBox="0 0 512 512" width="512" xmlns="http://www.w3.org/2000/svg" xmlns:xlink="http://www.w3.org/1999/xlink"><linearGradient id="SVGID_1_" gradientUnits="userSpaceOnUse" x1="256" x2="256" y1="512" y2="0"><stop offset="0" stop-color="#fd3a84"/><stop offset="1" stop-color="#ffa68d"/></linearGradient><g><g><g><path d="m176.607 206.606c5.858-5.858 5.858-15.355 0-21.213s-15.355-5.858-21.213 0-5.858 15.355 0 21.213c5.857 5.858 15.355 5.858 21.213 0zm64.393-10.606c0-41.355-33.645-75-75-75s-75 33.645-75 75 33.645 75 75 75 75-33.645 75-75zm-120 0c0-24.813 20.187-45 45-45s45 20.187 45 45-20.187 45-45 45-45-20.187-45-45zm135-196c-140.959 0-256 115.049-256 256 0 140.958 115.05 256 256 256 140.959 0 256-115.049 256-256 0-140.959-115.049-256-256-256zm0 482c-124.617 0-226-101.383-226-226s101.383-226 226-226 226 101.383 226 226-101.383 226-226 226zm90-361c-41.355 0-75 33.645-75 75s33.645 75 75 75 75-33.645 75-75-33.645-75-75-75zm0 120c-24.813 0-45-20.187-45-45s20.187-45 45-45 45 20.187 45 45-20.187 45-45 45zm-10.607-55.607c-5.858 5.858-5.858 15.355 0 21.213s15.355 5.858 21.213 0 5.858-15.355 0-21.213c-5.857-5.857-15.355-5.857-21.213 0zm-4.393 115.607h-150c-33.084 0-60 26.916-60 60s26.916 60 60 60c24.012 0 36.686-10.14 46.871-18.287 8.816-7.053 14.641-11.713 28.129-11.713s19.313 4.66 28.13 11.713c10.183 8.147 22.858 18.287 46.87 18.287 33.084 0 60-26.916 60-60s-26.916-60-60-60zm0 90c-13.488 0-19.313-4.66-28.13-11.713-10.183-8.147-22.858-18.287-46.87-18.287s-36.686 10.14-46.871 18.287c-8.816 7.053-14.641 11.713-28.129 11.713-16.542 0-30-13.458-30-30s13.458-30 30-30h150c16.542 0 30 13.458 30 30s-13.458 30-30 30z" fill="url(#SVGID_1_)"/></g></g></g></svg>