<svg id="Capa_1" enable-background="new 0 0 512 512" height="512" viewBox="0 0 512 512" width="512" xmlns="http://www.w3.org/2000/svg" xmlns:xlink="http://www.w3.org/1999/xlink"><linearGradient id="SVGID_1_" gradientUnits="userSpaceOnUse" x1="256" x2="256" y1="512" y2="0"><stop offset="0" stop-color="#a93aff"/><stop offset="1" stop-color="#ff81ff"/></linearGradient><g><g><g><path d="m166 226c33.084 0 60-26.916 60-60 0-8.284-6.716-15-15-15s-15 6.716-15 15c0 16.542-13.458 30-30 30s-30-13.458-30-30c0-8.284-6.716-15-15-15s-15 6.716-15 15c0 33.084 26.916 60 60 60zm210 45c-8.284 0-15 6.716-15 15 0 57.897-47.103 105-105 105s-105-47.103-105-105c0-8.284-6.716-15-15-15s-15 6.716-15 15c0 74.439 60.561 135 135 135s135-60.561 135-135c0-8.284-6.716-15-15-15zm-120-271c-140.95 0-256 115.041-256 256 0 140.95 115.041 256 256 256 140.95 0 256-115.041 256-256 0-140.95-115.041-256-256-256zm0 482c-124.617 0-226-101.383-226-226s101.383-226 226-226 226 101.383 226 226-101.383 226-226 226zm135-331c-8.284 0-15 6.716-15 15 0 16.542-13.458 30-30 30s-30-13.458-30-30c0-8.284-6.716-15-15-15s-15 6.716-15 15c0 33.084 26.916 60 60 60s60-26.916 60-60c0-8.284-6.716-15-15-15z" fill="url(#SVGID_1_)"/></g></g></g></svg>