<svg id="Capa_1" enable-background="new 0 0 512 512" height="512" viewBox="0 0 512 512" width="512" xmlns="http://www.w3.org/2000/svg" xmlns:xlink="http://www.w3.org/1999/xlink"><linearGradient id="SVGID_1_" gradientUnits="userSpaceOnUse" x1="256" x2="256" y1="512" y2="0"><stop offset="0" stop-color="#a93aff"/><stop offset="1" stop-color="#ff81ff"/></linearGradient><g><g><g><path d="m256 0c-140.959 0-256 115.05-256 256 0 76.607 34.802 146.696 91 194.425v46.575c0 8.284 6.716 15 15 15h60c7.029 0 12.912-4.842 14.538-11.367 24.33 7.538 49.623 11.367 75.462 11.367s51.132-3.829 75.462-11.367c1.626 6.525 7.509 11.367 14.538 11.367h60c8.284 0 15-6.716 15-15v-46.575c56.103-47.648 91-117.698 91-194.425 0-140.959-115.05-256-256-256zm-105 482h-30v-271h30zm240 0h-30v-271h30zm30-72.904c-.016-101.34 0-93.807 0-213.096 0-8.284-6.716-15-15-15h-90c-8.284 0-15 6.716-15 15s6.716 15 15 15h15v258.195c-24.014 8.496-49.195 12.805-75 12.805s-50.986-4.309-75-12.805v-258.195h15c8.284 0 15-6.716 15-15s-6.716-15-15-15h-90c-8.284 0-15 6.716-15 15 0 118.548.016 111.395 0 213.096-39.09-41.68-61-95.939-61-153.096 0-124.617 101.383-226 226-226s226 101.383 226 226c0 57.157-21.91 111.416-61 153.096zm-165-78.096c-24.813 0-45 20.187-45 45 0 8.284 6.716 15 15 15s15-6.716 15-15c0-8.271 6.729-15 15-15s15 6.729 15 15c0 8.284 6.716 15 15 15s15-6.716 15-15c0-24.813-20.187-45-45-45z" fill="url(#SVGID_1_)"/></g></g></g></svg>