<svg id="Capa_1" enable-background="new 0 0 512 512" height="512" viewBox="0 0 512 512" width="512" xmlns="http://www.w3.org/2000/svg" xmlns:xlink="http://www.w3.org/1999/xlink"><linearGradient id="SVGID_1_" gradientUnits="userSpaceOnUse" x1="256" x2="256" y1="512" y2="0"><stop offset="0" stop-color="#a93aff"/><stop offset="1" stop-color="#ff81ff"/></linearGradient><g><g><g><path d="m346 211c-8.271 0-15-6.729-15-15 0-8.284-6.716-15-15-15s-15 6.716-15 15c0 24.813 20.187 45 45 45s45-20.187 45-45c0-8.284-6.716-15-15-15s-15 6.716-15 15c0 8.271-6.729 15-15 15zm0-60c8.284 0 15-6.716 15-15s-6.716-15-15-15c-24.813 0-45-20.187-45-45 0-8.284-6.716-15-15-15s-15 6.716-15 15c0 41.355 33.645 75 75 75zm-180 0c41.355 0 75-33.645 75-75 0-8.284-6.716-15-15-15s-15 6.716-15 15c0 24.813-20.187 45-45 45-8.284 0-15 6.716-15 15s6.716 15 15 15zm45 45c0-8.284-6.716-15-15-15s-15 6.716-15 15c0 8.271-6.729 15-15 15s-15-6.729-15-15c0-8.284-6.716-15-15-15s-15 6.716-15 15c0 24.813 20.187 45 45 45s45-20.187 45-45zm45-196c-140.959 0-256 115.049-256 256 0 140.959 115.049 256 256 256 140.959 0 256-115.05 256-256 0-140.959-115.05-256-256-256zm0 30c120.706 0 219.613 95.12 225.702 214.339l-107.535 26.661h-236.335l-107.534-26.661c6.089-119.219 104.996-214.339 225.702-214.339zm105 271v90h-210v-90zm-330.16-25.618 90.16 22.353v96.553l-36.224 9.056c-30.158-34.997-49.783-79.305-53.936-127.962zm225.16 206.618c-55.783 0-106.902-20.326-146.364-53.947l28.211-7.053h236.306l28.211 7.053c-39.462 33.621-90.581 53.947-146.364 53.947zm171.224-78.656-36.224-9.056v-96.553l90.16-22.354c-4.153 48.658-23.778 92.966-53.936 127.963z" fill="url(#SVGID_1_)"/></g></g></g></svg>