<svg id="Capa_1" enable-background="new 0 0 512 512" height="512" viewBox="0 0 512 512" width="512" xmlns="http://www.w3.org/2000/svg" xmlns:xlink="http://www.w3.org/1999/xlink"><linearGradient id="SVGID_1_" gradientUnits="userSpaceOnUse" x1="256" x2="256" y1="512" y2="0"><stop offset="0" stop-color="#fd5900"/><stop offset="1" stop-color="#ffde00"/></linearGradient><g><g><g><path d="m309.292 209.417c7.41 3.705 16.42.701 20.125-6.708l16.583-33.168 16.583 33.167c3.705 7.408 12.713 10.414 20.125 6.708 7.41-3.705 10.413-12.715 6.708-20.125l-30-60c-2.541-5.081-7.734-8.291-13.416-8.291s-10.875 3.21-13.417 8.292l-30 60c-3.704 7.409-.701 16.42 6.709 20.125zm-203.292 16.583h-30c-8.284 0-15 6.716-15 15s6.716 15 15 15h30c8.284 0 15-6.716 15-15s-6.716-15-15-15zm23.292-16.583c7.41 3.705 16.42.701 20.125-6.708l16.583-33.168 16.583 33.167c3.705 7.408 12.713 10.414 20.125 6.708 7.41-3.705 10.413-12.715 6.708-20.125l-30-60c-2.541-5.081-7.734-8.291-13.416-8.291s-10.875 3.21-13.417 8.292l-30 60c-3.704 7.409-.701 16.42 6.709 20.125zm126.708-209.417c-140.951 0-256 115.041-256 256 0 140.951 115.041 256 256 256 140.951 0 256-115.041 256-256 0-140.951-115.041-256-256-256zm0 482c-124.617 0-226-101.383-226-226s101.383-226 226-226 226 101.383 226 226-101.383 226-226 226zm180-256h-30c-8.284 0-15 6.716-15 15s6.716 15 15 15h30c8.284 0 15-6.716 15-15s-6.716-15-15-15zm-60 45h-240c-8.284 0-15 6.716-15 15 0 74.439 60.561 135 135 135s135-60.561 135-135c0-8.284-6.716-15-15-15zm-120 120c-52.805 0-96.631-39.183-103.932-90h207.863c-7.3 50.817-51.126 90-103.931 90z" fill="url(#SVGID_1_)"/></g></g></g></svg>