<svg id="Capa_1" enable-background="new 0 0 512 512" height="512" viewBox="0 0 512 512" width="512" xmlns="http://www.w3.org/2000/svg" xmlns:xlink="http://www.w3.org/1999/xlink"><linearGradient id="SVGID_1_" gradientUnits="userSpaceOnUse" x1="256" x2="256" y1="512" y2="0"><stop offset="0" stop-color="#5558ff"/><stop offset="1" stop-color="#00c0ff"/></linearGradient><g><g><g><path d="m136 181c8.284 0 15-6.716 15-15 0-24.813 20.187-45 45-45h30c8.284 0 15-6.716 15-15s-6.716-15-15-15h-30c-41.355 0-75 33.645-75 75 0 8.284 6.716 15 15 15zm210 0h30c8.284 0 15-6.716 15-15s-6.716-15-15-15h-30c-24.813 0-45-20.187-45-45 0-8.284-6.716-15-15-15s-15 6.716-15 15c0 41.355 33.645 75 75 75zm45 30h-90c-8.284 0-15 6.716-15 15v15c0 33.084 26.916 60 60 60s60-26.916 60-60v-15c0-8.284-6.716-15-15-15zm-45 60c-16.542 0-30-13.458-30-30h60c0 16.542-13.458 30-30 30zm-120-30v-15c0-8.284-6.716-15-15-15h-90c-8.284 0-15 6.716-15 15v15c0 33.084 26.916 60 60 60s60-26.916 60-60zm-60 30c-16.542 0-30-13.458-30-30h60c0 16.542-13.458 30-30 30zm90 60c-41.355 0-75 33.645-75 75 0 8.284 6.716 15 15 15h120c8.284 0 15-6.716 15-15 0-41.355-33.645-75-75-75zm-42.43 60c6.191-17.461 22.874-30 42.43-30s36.239 12.539 42.43 30zm42.43-391c-140.951 0-256 115.041-256 256 0 140.951 115.041 256 256 256 140.95 0 256-115.041 256-256 0-140.951-115.041-256-256-256zm0 482c-124.617 0-226-101.383-226-226s101.383-226 226-226 226 101.383 226 226-101.383 226-226 226z" fill="url(#SVGID_1_)"/></g></g></g></svg>